<svg width="18" height="20" viewBox="0 0 18 20" fill="none" xmlns="http://www.w3.org/2000/svg">
<path d="M10.0616 9.03397L11.1751 3.02202C11.6775 0.869214 9.59373 0.240325 9.05978 2.52838L8.04351 7.87166C7.82292 8.86633 7.51973 9.29983 7.13459 9.47313C6.47351 9.77066 5.86506 8.80455 5.58073 8.13766L4.11054 4.6896C3.21159 2.73733 1.40445 3.65308 2.12787 5.45152L4.14965 10.0399L3.79181 9.21555L2.91312 7.1896C2.14056 5.56052 0.482563 6.21155 1.02076 7.82613C1.02076 7.82613 2.22456 10.7879 2.57748 11.7932C3.03762 13.1038 3.50831 15.9102 4.22651 17.0992C5.78937 19.6868 9.95109 19.3517 11.9671 17.0992C12.5338 16.4661 13.5329 15.0862 14.0905 14.4449C14.8651 13.554 16.892 11.2408 16.892 11.2408C17.2984 10.6413 16.9832 9.71469 16.6696 9.94283L12.5891 11.4402C12.3089 11.5343 12.1263 11.3124 12.0085 11.1357C11.9226 11.0069 12.033 10.5654 12.0658 10.3661C12.4546 8.19566 12.8434 6.02522 13.2322 3.85474C13.5642 2.20116 11.5329 1.59352 11.1281 3.29546" stroke="black" stroke-linecap="round" stroke-linejoin="round"/>
</svg>
